<svg version="1.1" id="Layer_1" xmlns="http://www.w3.org/2000/svg" xmlns:xlink="http://www.w3.org/1999/xlink" x="0px" y="0px"
	 width="100%" viewBox="0 0 848 1132" enable-background="new 0 0 848 1132" xml:space="preserve">
<path fill="#FFFFFF" opacity="1.000000" stroke="none" 
	d="
M849.000000,9.000006 
	C849.000000,369.694702 849.000000,730.389404 848.650391,1091.242920 
	C847.867371,1092.390625 847.364685,1093.355591 847.011658,1094.372437 
	C844.875732,1100.525024 843.452393,1107.035889 840.519897,1112.777954 
	C834.369995,1124.819824 822.887085,1128.870850 810.458740,1131.066895 
	C809.553589,1131.226807 808.815674,1132.333496 808.000000,1133.000000 
	C547.971985,1133.000000 287.943939,1133.000000 27.750809,1132.683594 
	C23.390974,1129.248901 18.385765,1126.794800 15.171740,1122.872803 
	C8.673181,1114.942871 7.108050,1104.866211 7.122598,1095.022461 
	C7.219000,1029.794434 7.992240,964.566589 7.942036,899.339172 
	C7.753211,654.013184 7.327951,408.687347 7.006177,163.361450 
	C6.961380,129.207840 6.854181,95.053101 7.091748,60.901077 
	C7.160114,51.072968 7.643824,41.144653 9.159654,31.453505 
	C11.521428,16.353981 18.048531,6.922584 34.532284,2.927863 
	C35.141479,2.780229 35.516075,1.664550 36.000000,1.000000 
	C184.694702,1.000000 333.389404,1.000000 482.239014,1.383155 
	C483.906616,2.177534 485.419159,2.948240 486.932007,2.948776 
	C603.954224,2.990198 720.976440,2.971119 838.160828,3.258033 
	C841.881958,5.372923 845.440979,7.186468 849.000000,9.000006 
M27.000006,709.500000 
	C26.666676,785.411621 26.257887,861.322998 26.027349,937.234924 
	C25.881084,985.396606 25.962936,1033.559204 26.044374,1081.721069 
	C26.055218,1088.133301 26.224510,1094.606323 27.111544,1100.940430 
	C28.256283,1109.114868 31.679758,1116.413574 40.059372,1119.401611 
	C45.306301,1121.272827 51.013905,1122.817383 56.519089,1122.831421 
	C80.268379,1122.891968 104.019157,1122.051636 127.769562,1122.043823 
	C353.081635,1121.970337 578.393738,1122.000000 803.705811,1122.000000 
	C804.705750,1122.000000 805.713745,1122.083374 806.704285,1121.987061 
	C816.132629,1121.070312 824.871948,1118.353271 828.519470,1108.685425 
	C830.645996,1103.048950 831.860413,1096.705200 831.851501,1090.682251 
	C831.763977,1031.434937 831.009644,972.187805 831.055847,912.941101 
	C831.260193,650.713135 831.667542,388.485382 831.997803,126.257530 
	C832.015198,112.425522 832.260132,98.587189 831.925903,84.763237 
	C831.599548,71.262207 831.150696,57.728287 829.831909,44.299522 
	C828.930847,35.124878 824.610779,27.003534 815.526550,23.395399 
	C809.642273,21.058235 803.088623,19.192633 796.834656,19.191645 
	C746.086853,19.183632 695.338745,19.993214 644.591370,19.939098 
	C489.019958,19.773203 333.448914,19.317896 177.877640,19.011106 
	C140.048004,18.936506 102.218048,18.966042 64.388435,19.044270 
	C59.813076,19.053732 55.147488,19.210640 50.683792,20.101385 
	C42.041702,21.825951 33.958874,25.262247 30.576086,34.127705 
	C28.254862,40.211056 26.199760,46.880814 26.198788,53.288780 
	C26.190140,110.202583 26.959148,167.116638 26.927963,224.030273 
	C26.886459,299.775848 26.080698,375.521118 26.073133,451.266571 
	C26.065987,522.845703 26.677189,594.424805 26.991047,666.004089 
	C27.053156,680.169128 27.000006,694.334656 27.000006,709.500000 
z"/>
<path fill="#000000" opacity="1.000000" stroke="none" 
	d="
M35.531342,1.000000 
	C35.516075,1.664550 35.141479,2.780229 34.532284,2.927863 
	C18.048531,6.922584 11.521428,16.353981 9.159654,31.453505 
	C7.643824,41.144653 7.160114,51.072968 7.091748,60.901077 
	C6.854181,95.053101 6.961380,129.207840 7.006177,163.361450 
	C7.327951,408.687347 7.753211,654.013184 7.942036,899.339172 
	C7.992240,964.566589 7.219000,1029.794434 7.122598,1095.022461 
	C7.108050,1104.866211 8.673181,1114.942871 15.171740,1122.872803 
	C18.385765,1126.794800 23.390974,1129.248901 27.292858,1132.683594 
	C18.336512,1133.000000 9.673022,1133.000000 1.037596,1133.000000 
	C1.037596,755.666687 1.037596,378.333344 1.037596,1.000000 
	C12.404356,1.000000 23.733519,1.000000 35.531342,1.000000 
z"/>
<path fill="#000000" opacity="1.000000" stroke="none" 
	d="
M837.998718,2.956691 
	C720.976440,2.971119 603.954224,2.990198 486.932007,2.948776 
	C485.419159,2.948240 483.906616,2.177534 482.696960,1.383155 
	C601.020874,1.000000 719.041809,1.000000 837.782104,1.279552 
	C838.333923,2.024967 838.166321,2.490831 837.998718,2.956691 
z"/>
<path fill="#000000" opacity="1.000000" stroke="none" 
	d="
M808.468628,1133.000000 
	C808.815674,1132.333496 809.553589,1131.226807 810.458740,1131.066895 
	C822.887085,1128.870850 834.369995,1124.819824 840.519897,1112.777954 
	C843.452393,1107.035889 844.875732,1100.525024 847.011658,1094.372437 
	C847.364685,1093.355591 847.867371,1092.390625 848.650391,1091.700928 
	C849.000000,1105.593384 849.000000,1119.186646 849.000000,1133.000000 
	C835.646606,1133.000000 822.291931,1133.000000 808.468628,1133.000000 
z"/>
<path fill="#7B7677" opacity="1.000000" stroke="none" 
	d="
M838.160828,3.258036 
	C838.166321,2.490831 838.333923,2.024967 838.250732,1.279552 
	C840.700012,1.000000 843.400024,1.000000 846.367310,1.359836 
	C847.423096,2.479775 848.211548,3.239877 849.000000,3.999990 
	C849.000000,5.388889 849.000000,6.777778 849.000000,8.583340 
	C845.440979,7.186468 841.881958,5.372923 838.160828,3.258036 
z"/>
<path fill="#000000" opacity="1.000000" stroke="none" 
	d="
M849.000000,3.499985 
	C848.211548,3.239877 847.423096,2.479775 846.817322,1.359831 
	C847.666687,1.666656 848.333374,2.333323 849.000000,3.499985 
z"/>
<path fill="#000000" opacity="1.000000" stroke="none" 
	d="
M27.000006,709.000000 
	C27.000006,694.334656 27.053156,680.169128 26.991047,666.004089 
	C26.677189,594.424805 26.065987,522.845703 26.073133,451.266571 
	C26.080698,375.521118 26.886459,299.775848 26.927963,224.030273 
	C26.959148,167.116638 26.190140,110.202583 26.198788,53.288780 
	C26.199760,46.880814 28.254862,40.211056 30.576086,34.127705 
	C33.958874,25.262247 42.041702,21.825951 50.683792,20.101385 
	C55.147488,19.210640 59.813076,19.053732 64.388435,19.044270 
	C102.218048,18.966042 140.048004,18.936506 177.877640,19.011106 
	C333.448914,19.317896 489.019958,19.773203 644.591370,19.939098 
	C695.338745,19.993214 746.086853,19.183632 796.834656,19.191645 
	C803.088623,19.192633 809.642273,21.058235 815.526550,23.395399 
	C824.610779,27.003534 828.930847,35.124878 829.831909,44.299522 
	C831.150696,57.728287 831.599548,71.262207 831.925903,84.763237 
	C832.260132,98.587189 832.015198,112.425522 831.997803,126.257530 
	C831.667542,388.485382 831.260193,650.713135 831.055847,912.941101 
	C831.009644,972.187805 831.763977,1031.434937 831.851501,1090.682251 
	C831.860413,1096.705200 830.645996,1103.048950 828.519470,1108.685425 
	C824.871948,1118.353271 816.132629,1121.070312 806.704285,1121.987061 
	C805.713745,1122.083374 804.705750,1122.000000 803.705811,1122.000000 
	C578.393738,1122.000000 353.081635,1121.970337 127.769562,1122.043823 
	C104.019157,1122.051636 80.268379,1122.891968 56.519089,1122.831421 
	C51.013905,1122.817383 45.306301,1121.272827 40.059372,1119.401611 
	C31.679758,1116.413574 28.256283,1109.114868 27.111544,1100.940430 
	C26.224510,1094.606323 26.055218,1088.133301 26.044374,1081.721069 
	C25.962936,1033.559204 25.881084,985.396606 26.027349,937.234924 
	C26.257887,861.322998 26.666676,785.411621 27.000006,709.000000 
M225.125046,170.045456 
	C218.698441,169.697189 212.246231,168.817154 205.851212,169.125031 
	C196.212646,169.589020 187.260391,172.190643 180.022202,179.374283 
	C171.527420,187.805038 168.280655,198.360275 168.180542,209.671555 
	C168.066742,222.532852 169.581177,235.399429 169.941620,248.276199 
	C170.494736,268.035706 170.620361,287.806824 171.035843,307.570770 
	C171.129044,312.004333 171.315323,316.490662 172.077682,320.844360 
	C173.799820,330.679230 178.778305,338.454681 188.595154,341.654144 
	C194.275940,343.505524 200.399063,344.651459 206.362396,344.834412 
	C215.777100,345.123230 225.223221,344.276337 234.658966,344.016907 
	C248.757645,343.629242 262.857574,343.190765 276.959595,343.065643 
	C283.223877,343.010010 289.502533,343.558105 295.760529,344.022552 
	C308.397644,344.960419 321.062256,345.722321 333.631561,347.248383 
	C336.961090,347.652618 342.161224,346.475708 342.166809,353.765381 
	C342.276398,497.338928 342.696930,640.912231 342.983734,784.485779 
	C343.085266,835.308594 342.958435,886.131958 343.044891,936.954895 
	C343.057831,944.554565 343.112427,952.230530 344.149353,959.732727 
	C345.430054,968.998047 348.175964,977.997681 358.643066,981.086487 
	C363.604034,982.550354 368.835083,983.786011 373.964386,983.870422 
	C393.455170,984.191223 412.954376,983.999207 432.450439,984.001404 
	C433.783203,984.001526 435.121185,983.949951 436.447968,984.044800 
	C454.346680,985.324280 472.276550,986.713623 490.125183,983.908264 
	C500.060516,982.346558 508.261475,977.496643 513.792053,968.729553 
	C519.863647,959.104858 521.816162,948.190491 521.859497,937.278320 
	C522.406311,799.537964 522.704712,661.796509 522.981506,524.055176 
	C523.093994,468.066711 522.999939,412.077850 523.000122,356.089142 
	C523.000122,354.922729 522.631714,353.575317 523.091858,352.632965 
	C523.756897,351.270996 524.903870,349.295898 526.050659,349.145111 
	C542.789978,346.944061 559.516174,344.120117 576.340576,343.217621 
	C598.891418,342.007965 621.525452,342.385040 644.122009,341.978577 
	C656.054626,341.763947 667.998718,341.596649 679.908569,340.907196 
	C688.012634,340.438080 697.871704,335.163177 698.878723,324.824036 
	C699.556519,317.864075 699.063049,310.783539 698.989380,303.758057 
	C698.680969,274.329041 698.767456,244.885330 697.744202,215.480576 
	C697.422852,206.244080 694.080750,197.112686 692.035339,187.114380 
	C691.024780,175.484329 684.065674,167.856842 672.181152,167.940369 
	C606.972473,168.398773 541.762268,168.650818 476.552765,169.004730 
	C419.335480,169.315262 362.118530,169.694656 304.901154,169.987503 
	C278.597107,170.122131 252.292419,170.122543 225.125046,170.045456 
z"/>
<path fill="#C77C36" opacity="1.000000" stroke="none" 
	d="
M692.121216,187.933197 
	C694.080750,197.112686 697.422852,206.244080 697.744202,215.480576 
	C698.767456,244.885330 698.680969,274.329041 698.989380,303.758057 
	C699.063049,310.783539 699.556519,317.864075 698.878723,324.824036 
	C697.871704,335.163177 688.012634,340.438080 679.908569,340.907196 
	C667.998718,341.596649 656.054626,341.763947 644.122009,341.978577 
	C621.525452,342.385040 598.891418,342.007965 576.340576,343.217621 
	C559.516174,344.120117 542.789978,346.944061 526.050659,349.145111 
	C524.903870,349.295898 523.756897,351.270996 523.091858,352.632965 
	C522.631714,353.575317 523.000122,354.922729 523.000122,356.089142 
	C522.999939,412.077850 523.093994,468.066711 522.981506,524.055176 
	C522.704712,661.796509 522.406311,799.537964 521.859497,937.278320 
	C521.816162,948.190491 519.863647,959.104858 513.792053,968.729553 
	C508.261475,977.496643 500.060516,982.346558 490.125183,983.908264 
	C472.276550,986.713623 454.346680,985.324280 436.447968,984.044800 
	C435.121185,983.949951 433.783203,984.001526 432.450439,984.001404 
	C412.954376,983.999207 393.455170,984.191223 373.964386,983.870422 
	C368.835083,983.786011 363.604034,982.550354 358.643066,981.086487 
	C348.175964,977.997681 345.430054,968.998047 344.149353,959.732727 
	C343.112427,952.230530 343.057831,944.554565 343.044891,936.954895 
	C342.958435,886.131958 343.085266,835.308594 342.983734,784.485779 
	C342.696930,640.912231 342.276398,497.338928 342.166809,353.765381 
	C342.161224,346.475708 336.961090,347.652618 333.631561,347.248383 
	C321.062256,345.722321 308.397644,344.960419 295.760529,344.022552 
	C289.502533,343.558105 283.223877,343.010010 276.959595,343.065643 
	C262.857574,343.190765 248.757645,343.629242 234.658966,344.016907 
	C225.223221,344.276337 215.777100,345.123230 206.362396,344.834412 
	C200.399063,344.651459 194.275940,343.505524 188.595154,341.654144 
	C178.778305,338.454681 173.799820,330.679230 172.077682,320.844360 
	C171.315323,316.490662 171.129044,312.004333 171.035843,307.570770 
	C170.620361,287.806824 170.494736,268.035706 169.941620,248.276199 
	C169.581177,235.399429 168.066742,222.532852 168.180542,209.671555 
	C168.280655,198.360275 171.527420,187.805038 180.022202,179.374283 
	C187.260391,172.190643 196.212646,169.589020 205.851212,169.125031 
	C212.246231,168.817154 218.698441,169.697189 225.622345,170.442612 
	C228.126205,172.247894 229.971451,174.014435 232.167007,175.002625 
	C242.144638,179.493362 252.445374,183.319260 262.201935,188.233917 
	C273.117310,193.732300 280.778931,202.058655 278.898773,215.461655 
	C277.805084,223.258102 275.675385,230.909225 273.617828,238.671860 
	C261.977173,237.144958 250.769485,235.119598 239.471161,234.147141 
	C230.978439,233.416168 224.586548,238.331146 221.269684,246.276093 
	C217.591385,255.086807 217.677780,264.244141 218.310196,273.776703 
	C219.878220,273.860901 221.176254,274.018005 222.469696,273.986572 
	C235.238602,273.676422 248.011581,272.950348 260.773773,273.110138 
	C273.654602,273.271332 286.525909,274.277832 299.398682,274.964691 
	C304.504150,275.237122 309.616638,276.061768 314.700134,275.886353 
	C320.917664,275.671753 327.093781,274.434052 333.313141,274.058014 
	C347.542175,273.197632 361.784119,272.116608 376.025635,272.041992 
	C386.395813,271.987610 396.295135,274.927002 404.732666,281.262970 
	C389.275146,280.517853 378.134796,288.867340 366.911499,297.344269 
	C361.773010,301.225372 356.201202,304.632812 350.506897,307.653748 
	C342.454559,311.925659 333.924713,312.199982 325.497955,308.623505 
	C322.554260,307.374146 319.908508,305.422668 316.588654,303.476379 
	C315.839813,306.285065 315.204926,308.310181 314.765259,310.376801 
	C312.847992,319.388458 313.283508,327.453278 322.340088,333.013062 
	C328.686157,336.908844 334.537964,341.602112 340.689178,345.824615 
	C353.793610,354.820099 361.844330,373.214722 358.625183,387.560089 
	C354.072021,407.850037 353.009369,428.528442 352.170288,449.164551 
	C351.618042,462.746307 352.611481,476.395325 353.039886,490.010254 
	C353.201233,495.136993 353.588593,500.265747 354.102142,505.370483 
	C355.673340,520.988953 357.432251,536.588806 358.969971,552.210388 
	C360.120178,563.895508 361.177002,575.593323 362.033295,587.303162 
	C363.457764,606.781860 364.860962,626.265442 365.920746,645.766113 
	C366.390137,654.403320 365.367310,663.148193 366.194672,671.731201 
	C366.881470,678.856079 368.519684,686.114014 371.114563,692.776245 
	C374.785950,702.202393 379.997040,711.015869 384.057037,720.306641 
	C389.635376,733.071838 391.496460,746.283997 387.160492,759.908447 
	C385.318024,765.697937 386.851807,768.656311 392.886871,769.937439 
	C398.853485,771.204163 404.921295,771.994202 411.001099,773.459595 
	C411.370972,784.334595 411.739899,794.742188 411.985229,805.152588 
	C412.367493,821.375488 412.752441,837.599304 412.971802,853.824890 
	C413.140289,866.288269 412.818481,878.762268 413.195679,891.216919 
	C413.354248,896.453247 414.367615,901.752686 415.699280,906.838379 
	C416.934570,911.556030 420.576233,914.328552 425.533112,912.973267 
	C433.654755,910.752502 440.557983,906.401367 445.634033,899.083008 
	C447.017212,897.389404 448.699249,895.877441 449.005096,894.125244 
	C450.534973,885.361023 451.728790,876.537415 452.991760,867.727661 
	C453.951996,861.029358 454.024597,854.078186 455.931915,847.667969 
	C459.629822,835.239868 469.630615,830.574707 481.651337,828.914856 
	C483.682953,828.634277 486.235443,827.390869 487.306213,825.771667 
	C490.563904,820.845337 488.151215,813.866882 483.018066,810.949219 
	C476.244873,807.099304 469.338104,803.380859 463.007721,798.876465 
	C449.317902,789.135742 444.394867,774.505615 450.357849,758.949646 
	C453.710114,750.204407 458.822693,742.077759 463.635712,733.965271 
	C468.104950,726.432312 473.229614,719.288208 478.494263,711.978638 
	C480.393463,712.194763 481.857819,712.478638 483.335693,712.604553 
	C498.442322,713.891541 510.525330,709.640015 511.900970,691.649109 
	C512.540527,683.285095 512.084229,674.830444 511.987976,666.418457 
	C511.694763,640.796448 511.023438,615.174622 511.070709,589.553772 
	C511.151489,545.766724 511.717316,501.980804 511.977173,458.193817 
	C512.103760,436.863190 512.002808,415.531250 511.993835,394.199890 
	C511.993164,392.536011 512.120239,390.832611 511.822388,389.214874 
	C510.109070,379.908356 510.512726,370.667664 513.111206,361.629608 
	C514.934814,355.286774 518.186707,349.550842 524.041443,346.043457 
	C539.745911,336.635529 557.362610,335.392365 574.986328,335.182892 
	C585.557373,335.057251 596.145996,336.869141 606.725281,336.853088 
	C617.638428,336.836456 628.586060,336.002716 639.447266,334.852783 
	C645.348694,334.227936 651.101807,332.201935 658.274902,330.483856 
	C650.970947,324.425964 644.901855,319.589661 639.052917,314.500336 
	C626.557251,303.627716 613.024292,294.217773 597.653259,288.104034 
	C590.420715,285.227325 582.313782,283.789886 574.504333,283.311981 
	C564.437378,282.695923 554.262634,284.092438 544.151306,283.864532 
	C537.037109,283.704193 530.158020,281.774323 525.431885,276.110840 
	C529.311340,275.689941 532.741028,275.102997 536.179932,275.042358 
	C559.431580,274.632385 582.691833,274.561310 605.934753,273.884644 
	C614.964539,273.621765 624.047913,272.573761 632.938904,270.958771 
	C640.715027,269.546234 646.193054,264.748230 646.727051,256.229553 
	C647.281433,247.386948 644.550659,240.669205 635.077698,239.909363 
	C626.056213,239.185730 617.025818,238.572266 607.941589,237.570328 
	C606.409485,236.226059 605.008545,235.086075 603.447693,234.241776 
	C597.622314,231.090729 591.459717,228.467758 585.960388,224.834229 
	C579.460388,220.539581 575.047241,214.623215 575.995789,206.086548 
	C577.304077,194.313019 582.780762,186.045761 595.976929,187.017136 
	C603.725708,187.587509 611.463745,188.883636 619.202820,188.854065 
	C627.946289,188.820694 636.698608,187.011719 645.422852,187.186569 
	C653.968933,187.357849 662.515503,188.507263 669.469055,194.859863 
	C681.488770,205.840775 681.960083,220.020630 681.263611,234.637695 
	C681.044312,239.239410 680.679199,243.834198 680.380859,248.432159 
	C680.975708,248.549194 681.570618,248.666245 682.165466,248.783279 
	C684.442688,241.107697 687.648254,233.563553 688.758423,225.722717 
	C690.099915,216.248230 689.525146,206.514191 690.083557,196.910172 
	C690.259277,193.888565 691.414429,190.923904 692.121216,187.933197 
z"/>
<path fill="#BB7331" opacity="1.000000" stroke="none" 
	d="
M692.078247,187.523788 
	C691.414429,190.923904 690.259277,193.888565 690.083557,196.910172 
	C689.525146,206.514191 690.099915,216.248230 688.758423,225.722717 
	C687.648254,233.563553 684.442688,241.107697 682.165466,248.783279 
	C681.570618,248.666245 680.975708,248.549194 680.380859,248.432159 
	C680.679199,243.834198 681.044312,239.239410 681.263611,234.637695 
	C681.960083,220.020630 681.488770,205.840775 669.469055,194.859863 
	C662.515503,188.507263 653.968933,187.357849 645.422852,187.186569 
	C636.698608,187.011719 627.946289,188.820694 619.202820,188.854065 
	C611.463745,188.883636 603.725708,187.587509 595.976929,187.017136 
	C582.780762,186.045761 577.304077,194.313019 575.995789,206.086548 
	C575.047241,214.623215 579.460388,220.539581 585.960388,224.834229 
	C591.459717,228.467758 597.622314,231.090729 603.447693,234.241776 
	C605.008545,235.086075 606.409485,236.226059 607.512207,237.641602 
	C604.861389,238.367538 602.589661,238.878403 600.301758,238.965897 
	C581.422607,239.687912 562.543945,240.466782 543.658203,240.961029 
	C524.397461,241.465088 505.129456,241.718765 485.863220,241.974289 
	C477.870667,242.080307 469.874268,241.922668 461.879852,241.857269 
	C427.629089,241.577042 393.377899,241.339066 359.128021,240.972794 
	C346.185242,240.834381 333.244415,240.438538 320.305084,240.074112 
	C304.872650,239.639496 289.442841,239.112625 274.011871,238.625732 
	C275.675385,230.909225 277.805084,223.258102 278.898773,215.461655 
	C280.778931,202.058655 273.117310,193.732300 262.201935,188.233917 
	C252.445374,183.319260 242.144638,179.493362 232.167007,175.002625 
	C229.971451,174.014435 228.126205,172.247894 226.053833,170.511795 
	C252.292419,170.122543 278.597107,170.122131 304.901154,169.987503 
	C362.118530,169.694656 419.335480,169.315262 476.552765,169.004730 
	C541.762268,168.650818 606.972473,168.398773 672.181152,167.940369 
	C684.065674,167.856842 691.024780,175.484329 692.078247,187.523788 
z"/>
<path fill="#F7F7F7" opacity="1.000000" stroke="none" 
	d="
M273.617828,238.671860 
	C289.442841,239.112625 304.872650,239.639496 320.305084,240.074112 
	C333.244415,240.438538 346.185242,240.834381 359.128021,240.972794 
	C393.377899,241.339066 427.629089,241.577042 461.879852,241.857269 
	C469.874268,241.922668 477.870667,242.080307 485.863220,241.974289 
	C505.129456,241.718765 524.397461,241.465088 543.658203,240.961029 
	C562.543945,240.466782 581.422607,239.687912 600.301758,238.965897 
	C602.589661,238.878403 604.861389,238.367538 607.570007,237.981628 
	C617.025818,238.572266 626.056213,239.185730 635.077698,239.909363 
	C644.550659,240.669205 647.281433,247.386948 646.727051,256.229553 
	C646.193054,264.748230 640.715027,269.546234 632.938904,270.958771 
	C624.047913,272.573761 614.964539,273.621765 605.934753,273.884644 
	C582.691833,274.561310 559.431580,274.632385 536.179932,275.042358 
	C532.741028,275.102997 529.311340,275.689941 525.014771,276.023621 
	C522.734924,275.676270 521.318054,275.046265 519.900513,275.044830 
	C497.960419,275.022644 476.020203,275.082031 453.730103,275.104645 
	C444.491241,279.882782 442.900757,288.028503 442.972626,297.140350 
	C443.337646,343.425079 443.792480,389.710327 443.865204,435.995941 
	C444.032715,542.610168 443.919281,649.224792 444.080933,755.838989 
	C444.151367,802.294067 444.614258,848.748596 444.919189,895.203247 
	C444.927826,896.520996 445.166748,897.837097 445.298279,899.153992 
	C440.557983,906.401367 433.654755,910.752502 425.533112,912.973267 
	C420.576233,914.328552 416.934570,911.556030 415.699280,906.838379 
	C414.367615,901.752686 413.354248,896.453247 413.195679,891.216919 
	C412.818481,878.762268 413.140289,866.288269 412.971802,853.824890 
	C412.752441,837.599304 412.367493,821.375488 411.985229,805.152588 
	C411.739899,794.742188 411.370972,784.334595 411.168274,773.057678 
	C411.421326,769.034485 411.698059,765.878784 411.685425,762.724304 
	C411.535492,725.254700 411.206696,687.785278 411.185638,650.315735 
	C411.118225,530.367920 411.122955,410.420013 411.289307,290.472412 
	C411.296448,285.323853 409.896362,282.302612 405.018463,280.959106 
	C396.295135,274.927002 386.395813,271.987610 376.025635,272.041992 
	C361.784119,272.116608 347.542175,273.197632 333.313141,274.058014 
	C327.093781,274.434052 320.917664,275.671753 314.700134,275.886353 
	C309.616638,276.061768 304.504150,275.237122 299.398682,274.964691 
	C286.525909,274.277832 273.654602,273.271332 260.773773,273.110138 
	C248.011581,272.950348 235.238602,273.676422 222.469696,273.986572 
	C221.176254,274.018005 219.878220,273.860901 218.310196,273.776703 
	C217.677780,264.244141 217.591385,255.086807 221.269684,246.276093 
	C224.586548,238.331146 230.978439,233.416168 239.471161,234.147141 
	C250.769485,235.119598 261.977173,237.144958 273.617828,238.671860 
z"/>
<path fill="#C57027" opacity="1.000000" stroke="none" 
	d="
M454.080017,275.122528 
	C476.020203,275.082031 497.960419,275.022644 519.900513,275.044830 
	C521.318054,275.046265 522.734924,275.676270 524.569275,276.101074 
	C530.158020,281.774323 537.037109,283.704193 544.151306,283.864532 
	C554.262634,284.092438 564.437378,282.695923 574.504333,283.311981 
	C582.313782,283.789886 590.420715,285.227325 597.653259,288.104034 
	C613.024292,294.217773 626.557251,303.627716 639.052917,314.500336 
	C644.901855,319.589661 650.970947,324.425964 658.274902,330.483856 
	C651.101807,332.201935 645.348694,334.227936 639.447266,334.852783 
	C628.586060,336.002716 617.638428,336.836456 606.725281,336.853088 
	C596.145996,336.869141 585.557373,335.057251 574.986328,335.182892 
	C557.362610,335.392365 539.745911,336.635529 524.041443,346.043457 
	C518.186707,349.550842 514.934814,355.286774 513.111206,361.629608 
	C510.512726,370.667664 510.109070,379.908356 511.822388,389.214874 
	C512.120239,390.832611 511.993164,392.536011 511.993835,394.199890 
	C512.002808,415.531250 512.103760,436.863190 511.977173,458.193817 
	C511.717316,501.980804 511.151489,545.766724 511.070709,589.553772 
	C511.023438,615.174622 511.694763,640.796448 511.987976,666.418457 
	C512.084229,674.830444 512.540527,683.285095 511.900970,691.649109 
	C510.525330,709.640015 498.442322,713.891541 483.335693,712.604553 
	C481.857819,712.478638 480.393463,712.194763 478.024841,711.965637 
	C473.101471,712.007385 469.076019,712.067688 464.811890,711.822144 
	C460.440491,710.663086 456.307739,709.809937 452.137390,708.492554 
	C452.363525,699.733276 452.826447,691.438965 452.860535,683.143005 
	C453.242218,590.260925 453.585938,497.378723 453.878723,404.496338 
	C454.014648,361.371948 454.017090,318.247131 454.080017,275.122528 
z"/>
<path fill="#C57027" opacity="1.000000" stroke="none" 
	d="
M404.732666,281.262970 
	C409.896362,282.302612 411.296448,285.323853 411.289307,290.472412 
	C411.122955,410.420013 411.118225,530.367920 411.185638,650.315735 
	C411.206696,687.785278 411.535492,725.254700 411.685425,762.724304 
	C411.698059,765.878784 411.421326,769.034485 411.111877,772.591431 
	C404.921295,771.994202 398.853485,771.204163 392.886871,769.937439 
	C386.851807,768.656311 385.318024,765.697937 387.160492,759.908447 
	C391.496460,746.283997 389.635376,733.071838 384.057037,720.306641 
	C379.997040,711.015869 374.785950,702.202393 371.114563,692.776245 
	C368.519684,686.114014 366.881470,678.856079 366.194672,671.731201 
	C365.367310,663.148193 366.390137,654.403320 365.920746,645.766113 
	C364.860962,626.265442 363.457764,606.781860 362.033295,587.303162 
	C361.177002,575.593323 360.120178,563.895508 358.969971,552.210388 
	C357.432251,536.588806 355.673340,520.988953 354.102142,505.370483 
	C353.588593,500.265747 353.201233,495.136993 353.039886,490.010254 
	C352.611481,476.395325 351.618042,462.746307 352.170288,449.164551 
	C353.009369,428.528442 354.072021,407.850037 358.625183,387.560089 
	C361.844330,373.214722 353.793610,354.820099 340.689178,345.824615 
	C334.537964,341.602112 328.686157,336.908844 322.340088,333.013062 
	C313.283508,327.453278 312.847992,319.388458 314.765259,310.376801 
	C315.204926,308.310181 315.839813,306.285065 316.588654,303.476379 
	C319.908508,305.422668 322.554260,307.374146 325.497955,308.623505 
	C333.924713,312.199982 342.454559,311.925659 350.506897,307.653748 
	C356.201202,304.632812 361.773010,301.225372 366.911499,297.344269 
	C378.134796,288.867340 389.275146,280.517853 404.732666,281.262970 
z"/>
<path fill="#D2A684" opacity="1.000000" stroke="none" 
	d="
M453.730103,275.104645 
	C454.017090,318.247131 454.014648,361.371948 453.878723,404.496338 
	C453.585938,497.378723 453.242218,590.260925 452.860535,683.143005 
	C452.826447,691.438965 452.363525,699.733276 452.197571,708.842407 
	C455.366211,718.187012 459.167999,718.923706 465.050598,712.128052 
	C469.076019,712.067688 473.101471,712.007385 477.596313,711.959961 
	C473.229614,719.288208 468.104950,726.432312 463.635712,733.965271 
	C458.822693,742.077759 453.710114,750.204407 450.357849,758.949646 
	C444.394867,774.505615 449.317902,789.135742 463.007721,798.876465 
	C469.338104,803.380859 476.244873,807.099304 483.018066,810.949219 
	C488.151215,813.866882 490.563904,820.845337 487.306213,825.771667 
	C486.235443,827.390869 483.682953,828.634277 481.651337,828.914856 
	C469.630615,830.574707 459.629822,835.239868 455.931915,847.667969 
	C454.024597,854.078186 453.951996,861.029358 452.991760,867.727661 
	C451.728790,876.537415 450.534973,885.361023 449.005096,894.125244 
	C448.699249,895.877441 447.017212,897.389404 445.634003,899.083008 
	C445.166748,897.837097 444.927826,896.520996 444.919189,895.203247 
	C444.614258,848.748596 444.151367,802.294067 444.080933,755.838989 
	C443.919281,649.224792 444.032715,542.610168 443.865204,435.995941 
	C443.792480,389.710327 443.337646,343.425079 442.972626,297.140350 
	C442.900757,288.028503 444.491241,279.882782 453.730103,275.104645 
z"/>
<path fill="#C77C36" opacity="1.000000" stroke="none" 
	d="
M464.811890,711.822144 
	C459.167999,718.923706 455.366211,718.187012 452.235229,709.306641 
	C456.307739,709.809937 460.440491,710.663086 464.811890,711.822144 
z"/>
</svg>